<svg width="12" height="14" viewBox="0 0 12 14" fill="none" xmlns="http://www.w3.org/2000/svg">
<path d="M3.5002 7.00001H7.7002H3.5002ZM3.5002 9.80001H7.7002H3.5002ZM9.1002 13.3H2.1002C1.72889 13.3 1.3728 13.1525 1.11025 12.89C0.847695 12.6274 0.700195 12.2713 0.700195 11.9V2.10001C0.700195 1.72871 0.847695 1.37261 1.11025 1.11006C1.3728 0.847512 1.72889 0.700012 2.1002 0.700012H6.0104C6.19603 0.700052 6.37405 0.773828 6.5053 0.905112L10.2951 4.69491C10.4264 4.82616 10.5002 5.00418 10.5002 5.18981V11.9C10.5002 12.2713 10.3527 12.6274 10.0901 12.89C9.82759 13.1525 9.4715 13.3 9.1002 13.3Z" stroke="#00AEE1" stroke-linecap="round" stroke-linejoin="round"/>
</svg>
