<svg width="143" height="40" viewBox="0 0 143 40" fill="none" xmlns="http://www.w3.org/2000/svg">
    <g clip-path="url(#clip0_256_1788)">
        <path d="M142.845 6.01016L125.62 13.7427V8.16135L142.845 0.42746V6.01016Z" fill="#EC742C" />
        <path d="M133.098 19.0287L118.509 8.71918V3.13727L133.098 13.4471V19.0287Z" fill="#F89732" />
        <path d="M125.618 8.16373H111.647V13.7456H125.618V8.16373Z" fill="#44C5E2" />
        <path d="M125.619 13.748L117.032 17.794V12.2126L125.619 8.16635V13.748Z" fill="#149CC5" />
        <path d="M11.0932 29.3665C11.0932 28.5496 10.9615 27.8909 10.7243 27.3903C10.4608 26.8896 10.0919 26.468 9.61762 26.1782C9.11698 25.8883 8.53729 25.6775 7.85219 25.5458C7.1671 25.4404 6.40296 25.3877 5.53343 25.3877C4.63754 25.3877 4.00515 25.335 3.6099 25.2296C3.21466 25.1505 2.95116 24.9924 2.81941 24.808C2.68766 24.5181 2.63496 24.1229 2.63496 23.5696V23.148C2.63496 22.7 2.76671 22.3311 3.03021 22.094C3.26736 21.8568 3.63625 21.7251 4.0842 21.7251H6.92996C7.4306 21.7251 7.7995 21.8305 8.01029 22.0413C8.22109 22.2521 8.35284 22.5946 8.37919 23.0953C8.40554 23.4905 8.56363 23.8067 8.82713 23.9912C9.09063 24.202 9.38047 24.3074 9.67032 24.3074C10.0129 24.3074 10.3027 24.202 10.5926 23.9648C10.8561 23.754 10.9878 23.4378 10.9878 23.0162C10.9878 22.4102 10.8824 21.8832 10.698 21.4089C10.4872 20.9346 10.1973 20.513 9.82842 20.1705C9.45952 19.8279 9.03793 19.5644 8.53728 19.38C8.03664 19.1955 7.50965 19.1165 6.92996 19.1165H4.0842C3.53085 19.1165 3.00386 19.2219 2.50322 19.4063C2.00257 19.5908 1.55463 19.8806 1.18573 20.2232C0.816839 20.5657 0.526993 20.9873 0.316196 21.4879C0.105399 21.9886 0 22.5419 0 23.148V23.5696C0 24.4918 0.131748 25.2559 0.395245 25.8093C0.632391 26.389 1.00129 26.8369 1.50193 27.1531C1.97622 27.4957 2.55592 27.7065 3.24101 27.8119C3.9261 27.9436 4.69024 27.9963 5.53343 27.9963C6.53471 27.9963 7.24615 28.049 7.6414 28.1544C8.03664 28.2861 8.30014 28.4179 8.37919 28.6023C8.40554 28.7077 8.43189 28.8658 8.45824 29.103C8.48459 29.3401 8.48459 29.6036 8.48459 29.8408V30.3678C8.45824 30.5259 8.45824 30.6049 8.45824 30.6313C8.45824 31.6062 7.98394 32.1068 7.00901 32.1068H4.0842C3.16196 32.1068 2.66131 31.6326 2.63496 30.684C2.60861 30.2624 2.47687 29.9462 2.21337 29.7354C1.92352 29.5246 1.63368 29.4192 1.31748 29.4192C0.922237 29.4192 0.606042 29.5509 0.368895 29.7881C0.131748 30.0252 0 30.3414 0 30.7367V30.7894C0.0263496 31.3954 0.131748 31.9488 0.368895 32.423C0.579692 32.9237 0.869538 33.3189 1.23843 33.6615C1.60733 34.004 2.02892 34.2412 2.52957 34.4256C3.03021 34.6101 3.53085 34.7155 4.0842 34.7155H7.00901C7.5887 34.7155 8.14204 34.6101 8.64268 34.4256C9.14333 34.2412 9.56492 33.9513 9.93382 33.6088C10.2764 33.2662 10.5662 32.8183 10.777 32.3176C10.9878 31.817 11.0932 31.2637 11.0932 30.6313V29.3665Z" fill="black" />
        <path d="M23.0823 27.6277H17.2854V27.3378C17.2854 26.3892 17.7596 25.915 18.7346 25.915H21.633C22.608 25.915 23.0823 26.3892 23.0823 27.3378V27.6277ZM25.7172 27.2851C25.7172 26.6264 25.6118 26.0204 25.4274 25.5197C25.243 25.0191 24.9795 24.6238 24.6369 24.2813C24.2944 23.9651 23.8728 23.7279 23.3985 23.5435C22.9242 23.3854 22.4235 23.3063 21.8702 23.3063H18.7346C18.1812 23.3063 17.6543 23.3854 17.1536 23.5698C16.653 23.7543 16.205 24.0441 15.8361 24.3867C15.4672 24.7292 15.1774 25.1772 14.9666 25.6778C14.7558 26.1784 14.6504 26.7581 14.6504 27.3905V30.6315C14.6504 31.2639 14.7558 31.8436 14.9666 32.3443C15.1774 32.8449 15.4672 33.2929 15.8361 33.6354C16.205 33.9779 16.653 34.2414 17.1536 34.4259C17.6543 34.6103 18.1812 34.7157 18.7346 34.7157H21.8702C22.4762 34.7157 23.0823 34.6103 23.6356 34.4259C24.189 34.2151 24.6896 33.7408 25.1376 33.0294C25.1903 32.924 25.243 32.8186 25.2693 32.7132C25.2957 32.5814 25.2957 32.476 25.2957 32.3706V32.2916C25.2693 31.9227 25.1376 31.6328 24.9004 31.3957C24.6633 31.1585 24.3734 31.0531 24.0572 31.0531C23.8728 31.0531 23.662 31.0795 23.4775 31.1585C23.2667 31.2376 23.0823 31.3693 22.9505 31.5538C22.8188 31.7382 22.6607 31.87 22.4499 31.949C22.2654 32.0544 21.9492 32.1071 21.5804 32.1071H18.7346C17.7596 32.1071 17.2854 31.6065 17.2854 30.6315V30.2363H23.8728C24.3207 30.2363 24.716 30.0782 25.1112 29.7357C25.5064 29.3931 25.7172 28.9452 25.7172 28.3655V27.2851Z" fill="black" />
        <path d="M37.574 30.7369C37.574 31.7119 37.0997 32.2125 36.1247 32.2125H33.2263C32.2513 32.2125 31.7771 31.7119 31.7771 30.7369V27.3905C31.7771 26.4156 32.2513 25.9413 33.2263 25.9413L36.1247 25.915C37.0997 25.915 37.574 26.4156 37.574 27.3905V30.7369ZM40.2089 35.3218V27.3905C40.2089 26.7581 40.1035 26.1784 39.8927 25.6778C39.682 25.1772 39.3921 24.7556 39.0496 24.3867C38.6807 24.0441 38.2591 23.7543 37.7584 23.5698C37.2578 23.3854 36.7044 23.3063 36.1247 23.3063H33.2263C32.6729 23.3063 32.1459 23.3854 31.6453 23.5698C31.1447 23.7543 30.7231 24.0441 30.3542 24.3867C29.9853 24.7292 29.6954 25.1772 29.4846 25.6778C29.2475 26.1784 29.1421 26.7581 29.1421 27.3905V30.7369C29.1421 31.3693 29.2475 31.949 29.4846 32.4497C29.6954 32.9503 29.9853 33.3983 30.3542 33.7408C30.7231 34.0833 31.1447 34.3468 31.6453 34.5313C32.1459 34.7157 32.6729 34.8211 33.2263 34.8211H36.1247C36.3882 34.8211 36.6517 34.7948 36.8889 34.7421C37.126 34.7157 37.3632 34.6367 37.574 34.5313V35.3218C37.574 35.6907 37.4159 36.0596 37.0997 36.4021C36.7571 36.7447 36.2565 36.9291 35.5451 36.9291C34.5174 36.9291 33.7533 36.9028 33.2526 36.8764C32.752 36.8501 32.3831 36.7974 32.1196 36.7183C32.0406 36.692 31.9879 36.692 31.9352 36.6656H31.7507C31.3555 36.6656 31.0393 36.7974 30.8285 37.0872C30.5913 37.377 30.4859 37.6932 30.4859 38.0358C30.4859 38.2993 30.565 38.5364 30.7231 38.7736C30.8812 39.0107 31.1447 39.1688 31.4872 39.2479C31.9352 39.3796 32.4885 39.4587 33.0945 39.485C33.7006 39.5114 34.5174 39.5377 35.5451 39.5377C36.1774 39.5377 36.7835 39.4323 37.3632 39.2215C37.9165 39.0107 38.4172 38.7209 38.8388 38.352C39.2604 37.9831 39.6029 37.5351 39.84 37.0082C40.0772 36.5075 40.2089 35.9278 40.2089 35.3218Z" fill="black" />
        <path d="M52.0662 27.6277H46.2692V27.3378C46.2692 26.3892 46.7435 25.915 47.7185 25.915H50.6169C51.5919 25.915 52.0662 26.3892 52.0662 27.3378V27.6277ZM54.7011 27.2851C54.7011 26.6264 54.5957 26.0204 54.4113 25.5197C54.2268 25.0191 53.9633 24.6238 53.6208 24.2813C53.2783 23.9651 52.8567 23.7279 52.3824 23.5435C51.9081 23.3854 51.4074 23.3063 50.8541 23.3063H47.7185C47.1651 23.3063 46.6381 23.3854 46.1375 23.5698C45.6369 23.7543 45.1889 24.0441 44.82 24.3867C44.4511 24.7292 44.1613 25.1772 43.9505 25.6778C43.7397 26.1784 43.6343 26.7581 43.6343 27.3905V30.6315C43.6343 31.2639 43.7397 31.8436 43.9505 32.3443C44.1613 32.8449 44.4511 33.2929 44.82 33.6354C45.1889 33.9779 45.6369 34.2414 46.1375 34.4259C46.6381 34.6103 47.1651 34.7157 47.7185 34.7157H50.8541C51.4601 34.7157 52.0662 34.6103 52.6195 34.4259C53.1729 34.2151 53.6735 33.7408 54.1214 33.0294C54.1741 32.924 54.2268 32.8186 54.2532 32.7132C54.2795 32.5814 54.2795 32.476 54.2795 32.3706V32.2916C54.2532 31.9227 54.1214 31.6328 53.8843 31.3957C53.6471 31.1585 53.3573 31.0531 53.0411 31.0531C52.8567 31.0531 52.6459 31.0795 52.4614 31.1585C52.2506 31.2376 52.0662 31.3693 51.9344 31.5538C51.8027 31.7382 51.6446 31.87 51.4338 31.949C51.2493 32.0544 50.9331 32.1071 50.5642 32.1071H47.7185C46.7435 32.1071 46.2692 31.6065 46.2692 30.6315V30.2363H52.8567C53.3046 30.2363 53.6998 30.0782 54.0951 29.7357C54.4903 29.3931 54.7011 28.9452 54.7011 28.3655V27.2851Z" fill="black" />
        <path d="M69.4565 27.3905C69.4565 26.7581 69.3511 26.1784 69.1403 25.6778C68.9295 25.1772 68.6397 24.7556 68.2971 24.3867C67.9282 24.0441 67.5066 23.7543 67.006 23.5698C66.5053 23.3854 65.952 23.3063 65.3723 23.3063H62.4738C62.1576 23.3063 61.8414 23.3327 61.5516 23.4117C61.2354 23.4908 60.9456 23.5962 60.7084 23.7279C60.4713 23.3854 60.1551 23.2009 59.7071 23.2009C59.3646 23.2009 59.0747 23.3063 58.8112 23.5171C58.5214 23.7543 58.3896 24.0705 58.3896 24.5184V33.5036C58.3896 33.9516 58.5214 34.2678 58.8112 34.4786C59.0747 34.7157 59.3646 34.8211 59.7071 34.8211C60.0497 34.8211 60.3395 34.7157 60.6294 34.4786C60.8929 34.2678 61.0246 33.9516 61.0246 33.5036V27.3905C61.0246 26.4156 61.4989 25.9413 62.4738 25.9413L65.3723 25.9149C66.3472 25.9149 66.8215 26.4156 66.8215 27.3905V33.4773C66.8215 33.9252 66.9533 34.2414 67.2431 34.4522C67.5066 34.6894 67.7965 34.7948 68.139 34.7948C68.4816 34.7948 68.7714 34.6894 69.0612 34.4522C69.3247 34.2414 69.4565 33.9252 69.4565 33.4773V27.3905Z" fill="black" />
        <path d="M84.0805 29.3668C84.0805 28.5499 83.9488 27.8912 83.7116 27.3905C83.4481 26.8899 83.0792 26.4683 82.6049 26.1784C82.1043 25.8886 81.5246 25.6778 80.8395 25.5461C80.1544 25.4407 79.3903 25.388 78.5207 25.388C77.6248 25.388 76.9925 25.3353 76.5972 25.2299C76.202 25.1508 75.9385 24.9927 75.8067 24.8083C75.675 24.5184 75.6223 24.1232 75.6223 23.5698V23.1482C75.6223 22.7003 75.754 22.3314 76.0175 22.0943C76.2547 21.8571 76.6236 21.7254 77.0715 21.7254H79.9173C80.4179 21.7254 80.7868 21.8308 80.9976 22.0416C81.2084 22.2524 81.3402 22.5949 81.3665 23.0955C81.3929 23.4908 81.5509 23.807 81.8144 23.9914C82.0779 24.2022 82.3678 24.3076 82.6576 24.3076C83.0002 24.3076 83.29 24.2022 83.5799 23.9651C83.8434 23.7543 83.9751 23.4381 83.9751 23.0165C83.9751 22.4104 83.8697 21.8835 83.6853 21.4092C83.4745 20.9349 83.1846 20.5133 82.8157 20.1707C82.4468 19.8282 82.0252 19.5647 81.5246 19.3802C81.0239 19.1958 80.497 19.1167 79.9173 19.1167H77.0715C76.5182 19.1167 75.9912 19.2221 75.4905 19.4066C74.9899 19.591 74.5419 19.8809 74.173 20.2234C73.8041 20.566 73.5143 20.9876 73.3035 21.4882C73.0927 21.9889 72.9873 22.5422 72.9873 23.1482V23.5698C72.9873 24.4921 73.1191 25.2562 73.3825 25.8096C73.6197 26.3892 73.9886 26.8372 74.4892 27.1534C74.9635 27.4959 75.5432 27.7067 76.2283 27.8121C76.9134 27.9439 77.6775 27.9966 78.5207 27.9966C79.522 27.9966 80.2335 28.0493 80.6287 28.1547C81.024 28.2864 81.2875 28.4182 81.3665 28.6026C81.3929 28.708 81.4192 28.8661 81.4455 29.1033C81.4719 29.3404 81.4719 29.6039 81.4719 29.841V30.368C81.4455 30.5261 81.4455 30.6052 81.4455 30.6315C81.4455 31.6065 80.9713 32.1071 79.9963 32.1071H77.0715C76.1493 32.1071 75.6486 31.6328 75.6223 30.6842C75.5959 30.2626 75.4642 29.9464 75.2007 29.7357C74.9108 29.5249 74.621 29.4195 74.3048 29.4195C73.9095 29.4195 73.5933 29.5512 73.3562 29.7884C73.1191 30.0255 72.9873 30.3417 72.9873 30.7369V30.7896C73.0137 31.3957 73.1191 31.949 73.3562 32.4233C73.567 32.924 73.8568 33.3192 74.2257 33.6617C74.5946 34.0043 75.0162 34.2414 75.5169 34.4259C76.0175 34.6103 76.5182 34.7157 77.0715 34.7157H79.9963C80.576 34.7157 81.1294 34.6103 81.63 34.4259C82.1306 34.2414 82.5522 33.9516 82.9211 33.609C83.2637 33.2665 83.5535 32.8186 83.7643 32.3179C83.9751 31.8173 84.0805 31.2639 84.0805 30.6315V29.3668Z" fill="black" />
        <path d="M96.0696 30.6579C96.0696 31.6328 95.5953 32.1335 94.6204 32.1335H91.7219C90.747 32.1335 90.2727 31.6328 90.2727 30.6579V27.3905C90.2727 26.4156 90.747 25.9413 91.7219 25.9413L94.6204 25.915C95.5953 25.915 96.0696 26.4156 96.0696 27.3905V30.6579ZM98.7046 27.3905C98.7046 26.7581 98.5992 26.1784 98.3884 25.6778C98.1776 25.1772 97.8877 24.7556 97.5452 24.3867C97.1763 24.0441 96.7547 23.7543 96.254 23.5698C95.7534 23.3854 95.2 23.3063 94.6204 23.3063H91.7219C91.1685 23.3063 90.6416 23.3854 90.1409 23.5698C89.6403 23.7543 89.2187 24.0441 88.8498 24.3867C88.4809 24.7292 88.191 25.1772 87.9802 25.6778C87.7431 26.1784 87.6377 26.7581 87.6377 27.3905V30.6579C87.6377 31.2903 87.7431 31.87 87.9802 32.3706C88.191 32.8713 88.4809 33.3192 88.8498 33.6617C89.2187 34.0043 89.6403 34.2678 90.1409 34.4522C90.6416 34.6367 91.1685 34.7421 91.7219 34.7421H94.6204C95.2 34.7421 95.7534 34.6367 96.254 34.4522C96.7547 34.2678 97.1763 34.0043 97.5452 33.6354C97.8877 33.2929 98.1776 32.8449 98.3884 32.3443C98.5992 31.8436 98.7046 31.2903 98.7046 30.6579V27.3905Z" fill="black" />
        <path d="M106.346 32.7395C106.214 32.5287 106.003 32.3706 105.766 32.2916C105.687 32.2652 105.634 32.2389 105.581 32.2125C105.502 32.2125 105.423 32.1862 105.344 32.1598C105.265 32.1335 105.186 32.0281 105.133 31.8436C105.054 31.6592 105.028 31.343 105.028 30.895V20.0126C105.028 19.5647 104.896 19.2485 104.606 19.0377C104.317 18.8269 104.027 18.7215 103.711 18.7215C103.394 18.7215 103.105 18.8269 102.815 19.0377C102.525 19.2485 102.393 19.5647 102.393 20.0126V31.2903C102.393 31.9227 102.472 32.4233 102.604 32.8186C102.736 33.2138 102.894 33.5563 103.105 33.8462C103.394 34.2151 103.842 34.4786 104.396 34.663C104.633 34.7421 104.923 34.7684 105.265 34.7684C105.608 34.7684 105.924 34.6367 106.187 34.3732C106.425 34.136 106.556 33.8198 106.556 33.4773C106.556 33.1874 106.477 32.9503 106.346 32.7395Z" fill="black" />
        <path d="M117.596 30.7633C117.596 31.1058 117.517 31.422 117.359 31.6592C117.175 31.8963 116.78 32.0281 116.147 32.0281H113.012C112.669 32.0281 112.379 31.9754 112.195 31.87C112.01 31.7646 111.905 31.5538 111.905 31.2376C111.905 30.895 112.01 30.6842 112.247 30.6052C112.485 30.5261 112.695 30.4734 112.933 30.4471L116.727 30.0782C116.911 30.0518 117.069 30.0255 117.201 29.9728C117.333 29.9464 117.465 29.8937 117.596 29.8674V30.7633ZM121.312 32.924C121.233 32.7659 121.127 32.6078 120.996 32.476C120.864 32.3443 120.732 32.2125 120.653 32.1335C120.574 32.0544 120.495 31.9754 120.442 31.87C120.39 31.7909 120.363 31.6855 120.337 31.5538C120.31 31.422 120.31 31.2639 120.31 31.0268V27.3642C120.31 26.7581 120.205 26.2048 120.021 25.7042C119.81 25.2035 119.52 24.7819 119.177 24.413C118.835 24.0705 118.413 23.7806 117.913 23.5962C117.412 23.4117 116.859 23.3063 116.279 23.3063H113.512C112.854 23.3063 112.195 23.4381 111.562 23.6752C110.904 23.9124 110.377 24.3867 109.981 25.0981C109.85 25.3616 109.771 25.5724 109.771 25.8096C109.771 26.1784 109.929 26.4946 110.219 26.7318C110.508 26.9689 110.825 27.1007 111.167 27.1007C111.589 27.1007 111.958 26.8635 112.274 26.4156C112.353 26.2838 112.511 26.1784 112.722 26.073C112.906 25.9676 113.222 25.915 113.644 25.915H116.279C116.622 25.915 116.911 25.9676 117.122 26.073C117.333 26.2048 117.465 26.4156 117.517 26.7054C117.517 26.7318 117.517 26.7845 117.544 26.8372C117.544 26.8899 117.544 26.9426 117.517 26.9689C117.438 27.048 117.386 27.1534 117.333 27.2324C117.254 27.3115 117.043 27.3905 116.701 27.4169C116.095 27.4959 115.541 27.5486 115.041 27.6277C114.593 27.6804 114.171 27.7331 113.776 27.7858C113.354 27.8385 113.038 27.8648 112.854 27.8912C112.327 27.9702 111.852 28.0493 111.404 28.181C110.956 28.3128 110.587 28.5236 110.271 28.7607C109.929 28.9979 109.692 29.3404 109.507 29.7356C109.323 30.1572 109.217 30.6842 109.217 31.2903C109.217 31.9754 109.349 32.5287 109.613 32.9767C109.85 33.4246 110.192 33.7935 110.587 34.0306C110.983 34.2941 111.404 34.4786 111.905 34.5576C112.379 34.663 112.854 34.7157 113.301 34.7157H116.2C116.648 34.7157 117.069 34.663 117.412 34.584C117.755 34.5049 118.123 34.3205 118.466 34.0833C118.861 34.5313 119.388 34.7684 120.021 34.7684C120.363 34.7684 120.679 34.6367 120.969 34.3995C121.259 34.1624 121.391 33.8198 121.391 33.4246C121.391 33.2665 121.364 33.1084 121.312 32.924Z" fill="black" />
        <path d="M131.641 23.7543C131.43 23.4644 131.087 23.3063 130.639 23.3063H128.531C128.215 23.3063 127.899 23.3327 127.609 23.359C127.293 23.4117 126.977 23.5171 126.687 23.7016C126.582 23.5698 126.45 23.4644 126.292 23.3854C126.107 23.3063 125.949 23.2536 125.765 23.2536C125.37 23.2536 125.053 23.3854 124.816 23.6225C124.579 23.8597 124.447 24.1759 124.447 24.5711V33.4773C124.447 33.7935 124.553 34.0833 124.79 34.3732C125.001 34.663 125.317 34.7948 125.765 34.7948C126.16 34.7948 126.503 34.663 126.74 34.4259C126.977 34.1887 127.082 33.8725 127.082 33.4773V27.3642C127.082 26.3892 127.557 25.9149 128.531 25.9149H130.639C131.087 25.9149 131.404 25.7832 131.641 25.5197C131.852 25.2299 131.957 24.94 131.957 24.6238C131.957 24.334 131.852 24.0441 131.641 23.7543Z" fill="black" />
    </g>
    <defs>
        <clipPath id="clip0_256_1788">
            <rect width="142.857" height="40" fill="white" />
        </clipPath>
    </defs>
</svg>