<svg width="22" height="22" viewBox="0 0 22 22" fill="none" xmlns="http://www.w3.org/2000/svg">
    <path d="M9.16667 19.7083C9.67293 19.7083 10.0833 19.2979 10.0833 18.7917C10.0833 18.2854 9.67293 17.875 9.16667 17.875C8.66041 17.875 8.25 18.2854 8.25 18.7917C8.25 19.2979 8.66041 19.7083 9.16667 19.7083Z" stroke="#1D1D1B" stroke-width="1.5" stroke-linecap="round" stroke-linejoin="round" />
    <path d="M16.5002 19.7083C17.0064 19.7083 17.4168 19.2979 17.4168 18.7917C17.4168 18.2854 17.0064 17.875 16.5002 17.875C15.9939 17.875 15.5835 18.2854 15.5835 18.7917C15.5835 19.2979 15.9939 19.7083 16.5002 19.7083Z" stroke="#1D1D1B" stroke-width="1.5" stroke-linecap="round" stroke-linejoin="round" />
    <path d="M2.2915 2.29166H5.0415L7.5165 13.6583C7.60221 14.0787 7.83261 14.4556 8.1676 14.7236C8.50258 14.9916 8.92094 15.1336 9.34984 15.125H16.4082C16.8371 15.1336 17.2554 14.9916 17.5904 14.7236C17.9254 14.4556 18.1558 14.0787 18.2415 13.6583L19.7082 5.95832H6.50817" stroke="#1D1D1B" stroke-width="1.5" stroke-linecap="round" stroke-linejoin="round" />
</svg>