<svg width="14" height="14" viewBox="0 0 14 14" fill="none" xmlns="http://www.w3.org/2000/svg">
<path d="M0.700195 2.09995C0.700195 1.72865 0.847695 1.37255 1.11025 1.11C1.3728 0.847451 1.72889 0.699951 2.1002 0.699951H4.3962C4.54305 0.700063 4.68615 0.746359 4.80524 0.832286C4.92434 0.918214 5.01339 1.03942 5.0598 1.17875L6.1084 4.32385C6.16153 4.48369 6.15524 4.65732 6.0907 4.8129C6.02615 4.96848 5.90767 5.09557 5.757 5.17085L4.1771 5.96185C4.95152 7.67583 6.32432 9.04863 8.0383 9.82305L8.8293 8.24315C8.90458 8.09247 9.03167 7.974 9.18724 7.90945C9.34282 7.8449 9.51646 7.83862 9.6763 7.89175L12.8214 8.94035C12.9608 8.9868 13.0821 9.07595 13.1681 9.19519C13.254 9.31442 13.3002 9.45768 13.3002 9.60465V11.9C13.3002 12.2713 13.1527 12.6274 12.8901 12.8899C12.6276 13.1525 12.2715 13.3 11.9002 13.3H11.2002C5.4014 13.3 0.700195 8.59875 0.700195 2.79995V2.09995Z" stroke="#1D1D1B" stroke-linecap="round" stroke-linejoin="round"/>
</svg>
